<svg width="21" height="24" viewBox="0 0 21 24" fill="none" xmlns="http://www.w3.org/2000/svg">
<path fill-rule="evenodd" clip-rule="evenodd" d="M10.4997 0C11.9021 0 19.2617 2.40637 20.2345 3.33425C21.0465 4.10768 21.0341 4.73256 20.9772 7.73079C20.9549 8.93103 20.924 10.5663 20.924 12.8265C20.924 20.9405 11.1829 23.8432 10.7683 23.9623C10.6804 23.9882 10.59 24 10.4997 24C10.4093 24 10.319 23.9882 10.2311 23.9623C9.81645 23.8432 0.0754057 20.9405 0.0754057 12.8265C0.0754057 10.5628 0.0444621 8.92749 0.0221827 7.72725C0.0120155 7.19249 0.00326921 6.73329 0.000376984 6.33532L0 5.88622C0.0105015 4.41084 0.15555 3.91432 0.763592 3.33425C1.7377 2.40637 9.09732 0 10.4997 0ZM10.4997 1.76852C9.45008 1.76852 2.82691 3.98978 2.06322 4.59697C1.91674 4.73728 1.86233 4.94613 1.85536 5.7749L1.8548 6.09405C1.85627 6.49851 1.8649 7.01908 1.87756 7.69424C1.90108 8.90391 1.93202 10.5486 1.93202 12.8265C1.93202 18.9585 9.0144 21.6809 10.4985 22.182C11.9813 21.6785 19.0674 18.9409 19.0674 12.8265C19.0674 10.551 19.0983 8.90745 19.1206 7.69778C19.1336 7.02198 19.1424 6.50095 19.1438 6.09589L19.1431 5.7762C19.1353 4.94575 19.0775 4.73397 18.9213 4.58518C18.1712 3.98978 11.5493 1.76852 10.4997 1.76852ZM8.82985 8.88646L10.4998 10.4779L12.1695 8.88646C12.5322 8.54101 13.1189 8.54101 13.4815 8.88646C13.8442 9.23191 13.8442 9.79076 13.4815 10.1362L11.8118 11.7276L13.4813 13.3172C13.844 13.6626 13.844 14.2215 13.4813 14.5669C13.3006 14.7403 13.0629 14.8263 12.8253 14.8263C12.5876 14.8263 12.35 14.7403 12.1693 14.5669L10.4998 12.9774L8.8301 14.5669C8.64938 14.7403 8.41174 14.8263 8.17409 14.8263C7.93644 14.8263 7.6988 14.7403 7.51809 14.5669C7.15543 14.2215 7.15543 13.6626 7.51809 13.3172L9.18778 11.7276L7.51784 10.1362C7.15518 9.79076 7.15518 9.23191 7.51784 8.88646C7.8805 8.54101 8.46719 8.54101 8.82985 8.88646Z" fill="#2C2C37"/>
</svg>
