<svg width="166" height="45" viewBox="0 0 166 45" fill="none" xmlns="http://www.w3.org/2000/svg">
<path d="M28.8204 9.02881C27.4768 9.03034 26.1887 9.56477 25.2389 10.5149C24.2888 11.465 23.7544 12.7531 23.7532 14.0967V26.7197C23.7674 27.6231 23.6019 28.52 23.2661 29.3587C22.9302 30.1973 22.431 30.9606 21.7973 31.6045C21.1635 32.2484 20.4081 32.7597 19.5748 33.1087C18.7416 33.4577 17.8473 33.6374 16.9439 33.6374C16.0406 33.6374 15.1462 33.4577 14.313 33.1087C13.4798 32.7597 12.7243 32.2484 12.0906 31.6045C11.4569 30.9606 10.9576 30.1973 10.6218 29.3587C10.286 28.52 10.1204 27.6231 10.1347 26.7197V14.0967C10.1347 12.7528 9.60083 11.4638 8.65051 10.5135C7.7002 9.56322 6.41129 9.02934 5.06735 9.02934C3.72341 9.02934 2.43451 9.56322 1.48419 10.5135C0.533876 11.4638 0 12.7528 0 14.0967V28.0563C-6.63133e-08 30.2813 0.438265 32.4847 1.28978 34.5405C2.14129 36.5962 3.38938 38.464 4.96276 40.0376C6.53614 41.6109 8.40403 42.859 10.4598 43.7105C12.5155 44.5619 14.7188 45.0002 16.9439 45.0002C19.169 45.0002 21.3724 44.5619 23.4281 43.7105C25.4839 42.859 27.3517 41.6109 28.925 40.0376C30.4985 38.464 31.7466 36.5962 32.598 34.5405C33.4496 32.4847 33.8879 30.2813 33.8879 28.0563V14.0967C33.8864 12.7531 33.3522 11.4649 32.4022 10.5149C31.4521 9.56477 30.164 9.03034 28.8204 9.02881ZM31.6709 28.0552C31.6709 31.9611 30.1192 35.7069 27.3574 38.4687C24.5956 41.2305 20.8498 42.7822 16.9439 42.7822C13.0381 42.7822 9.29225 41.2305 6.53042 38.4687C3.76858 35.7069 2.21699 31.9611 2.21699 28.0552V14.0967C2.22348 13.345 2.52662 12.6263 3.06048 12.097C3.59432 11.5678 4.31561 11.2708 5.06735 11.2708C5.81909 11.2708 6.54039 11.5678 7.07422 12.097C7.60806 12.6263 7.91123 13.345 7.91772 14.0967V26.7197C7.91772 29.1136 8.86869 31.4096 10.5614 33.1023C12.2542 34.7951 14.55 35.7459 16.9439 35.7459C19.3378 35.7459 21.6338 34.7951 23.3265 33.1023C25.0191 31.4096 25.9701 29.1136 25.9701 26.7197V14.0967C25.9701 13.3407 26.2703 12.6157 26.805 12.0812C27.3396 11.5466 28.0645 11.2463 28.8204 11.2463C29.5765 11.2463 30.3014 11.5466 30.8361 12.0812C31.3705 12.6157 31.6709 13.3407 31.6709 14.0967V28.0552Z" fill="#1CC8EE"/>
<path d="M15.8355 11.6122V26.226C15.8355 26.5201 15.9523 26.802 16.1602 27.0099C16.368 27.2179 16.65 27.3345 16.944 27.3345C17.2379 27.3345 17.5199 27.2179 17.7278 27.0099C17.9357 26.802 18.0525 26.5201 18.0525 26.226V11.6122C19.4837 11.3364 20.7607 10.5371 21.6342 9.37037C22.5077 8.2036 22.915 6.75316 22.7764 5.30223C22.6379 3.8513 21.9637 2.50412 20.8852 1.52368C19.8067 0.543255 18.4015 0 16.944 0C15.4864 0 14.0813 0.543255 13.0028 1.52368C11.9243 2.50412 11.25 3.8513 11.1115 5.30223C10.973 6.75316 11.3802 8.2036 12.2538 9.37037C13.1273 10.5371 14.4043 11.3364 15.8355 11.6122ZM16.944 2.21937C17.6643 2.21937 18.3685 2.43298 18.9675 2.83321C19.5665 3.23343 20.0333 3.80228 20.309 4.46782C20.5846 5.13336 20.6568 5.86571 20.5162 6.57224C20.3756 7.27877 20.0287 7.92774 19.5193 8.43711C19.0099 8.94647 18.3609 9.29334 17.6544 9.43385C16.9479 9.57438 16.2155 9.5022 15.55 9.22651C14.8845 8.9508 14.3157 8.48394 13.9155 7.88495C13.5153 7.28596 13.3017 6.58176 13.3017 5.86138C13.3029 4.89577 13.687 3.97002 14.3698 3.28726C15.0526 2.60449 15.9784 2.22043 16.944 2.21937Z" fill="#FE33D1"/>
<path d="M70.9438 21.972V23.484C70.9438 26.284 70.0478 28.552 68.2558 30.288C66.4638 32.024 64.1492 32.892 61.3118 32.892C58.2878 32.892 55.7772 31.912 53.7798 29.952C51.8012 27.9733 50.8118 25.5653 50.8118 22.728C50.8118 19.872 51.7918 17.4547 53.7518 15.476C55.7305 13.4973 58.1758 12.508 61.0878 12.508C62.9172 12.508 64.5878 12.928 66.0998 13.768C67.6118 14.5893 68.7878 15.6907 69.6278 17.072L66.3238 18.976C65.8572 18.1733 65.1478 17.52 64.1958 17.016C63.2625 16.512 62.2172 16.26 61.0598 16.26C59.1932 16.26 57.6532 16.876 56.4398 18.108C55.2452 19.3213 54.6478 20.8613 54.6478 22.728C54.6478 24.576 55.2545 26.1067 56.4678 27.32C57.6998 28.5147 59.3238 29.112 61.3398 29.112C62.8332 29.112 64.0652 28.7853 65.0358 28.132C66.0252 27.46 66.6972 26.5453 67.0518 25.388H61.1158V21.972H70.9438ZM85.4442 32.5L81.4962 25.696H78.5562V32.5H74.6922V12.9H82.5322C84.3429 12.9 85.8829 13.5347 87.1522 14.804C88.4215 16.0733 89.0562 17.604 89.0562 19.396C89.0562 20.6093 88.7109 21.7387 88.0202 22.784C87.3295 23.8107 86.4149 24.5853 85.2762 25.108L89.6162 32.5H85.4442ZM78.5562 16.512V22.308H82.5322C83.2602 22.308 83.8855 22.028 84.4082 21.468C84.9309 20.8893 85.1922 20.1987 85.1922 19.396C85.1922 18.5933 84.9309 17.912 84.4082 17.352C83.8855 16.792 83.2602 16.512 82.5322 16.512H78.5562ZM92.8914 12.9H96.7554V32.5H92.8914V12.9ZM113.088 16.596H105.248V21.244H112.864V24.94H105.248V32.5H101.384V12.9H113.088V16.596Z" fill="#1CC8EE"/>
<path d="M124.547 18.164C126.544 18.164 128.243 18.8733 129.643 20.292C131.062 21.7107 131.771 23.4467 131.771 25.5C131.771 27.5533 131.062 29.2893 129.643 30.708C128.243 32.1267 126.544 32.836 124.547 32.836C122.064 32.836 120.179 31.8093 118.891 29.756V32.5H117.043V12.9H118.891V21.244C120.179 19.1907 122.064 18.164 124.547 18.164ZM120.487 29.448C121.551 30.512 122.858 31.044 124.407 31.044C125.956 31.044 127.263 30.512 128.327 29.448C129.391 28.3653 129.923 27.0493 129.923 25.5C129.923 23.9507 129.391 22.644 128.327 21.58C127.263 20.4973 125.956 19.956 124.407 19.956C122.858 19.956 121.551 20.4973 120.487 21.58C119.423 22.644 118.891 23.9507 118.891 25.5C118.891 27.0493 119.423 28.3653 120.487 29.448ZM147.576 30.736C146.157 32.136 144.421 32.836 142.368 32.836C140.315 32.836 138.569 32.136 137.132 30.736C135.713 29.3173 135.004 27.572 135.004 25.5C135.004 23.428 135.713 21.692 137.132 20.292C138.569 18.8733 140.315 18.164 142.368 18.164C144.421 18.164 146.157 18.8733 147.576 20.292C149.013 21.692 149.732 23.428 149.732 25.5C149.732 27.572 149.013 29.3173 147.576 30.736ZM138.448 29.448C139.512 30.512 140.819 31.044 142.368 31.044C143.917 31.044 145.224 30.512 146.288 29.448C147.352 28.3653 147.884 27.0493 147.884 25.5C147.884 23.9507 147.352 22.644 146.288 21.58C145.224 20.4973 143.917 19.956 142.368 19.956C140.819 19.956 139.512 20.4973 138.448 21.58C137.384 22.644 136.852 23.9507 136.852 25.5C136.852 27.0493 137.384 28.3653 138.448 29.448ZM164.6 32.5H162.388L158.02 26.732L153.652 32.5H151.44L156.928 25.248L151.804 18.5H154.016L158.02 23.792L162.024 18.5H164.236L159.14 25.248L164.6 32.5Z" fill="#FE33D1"/>
</svg>
