<svg width="24" height="24" viewBox="0 0 24 24" fill="none" xmlns="http://www.w3.org/2000/svg">
<path fill-rule="evenodd" clip-rule="evenodd" d="M11.3084 2C13.7544 2 15.7444 3.99 15.7444 6.436V7.368C15.7444 7.782 15.4084 8.118 14.9944 8.118C14.5804 8.118 14.2444 7.782 14.2444 7.368V6.436C14.2444 4.816 12.9274 3.5 11.3084 3.5H6.43337C4.81637 3.5 3.50037 4.816 3.50037 6.436V17.565C3.50037 19.184 4.81637 20.5 6.43337 20.5H11.3194C12.9314 20.5 14.2444 19.188 14.2444 17.576V16.633C14.2444 16.219 14.5804 15.883 14.9944 15.883C15.4084 15.883 15.7444 16.219 15.7444 16.633V17.576C15.7444 20.016 13.7584 22 11.3194 22H6.43337C3.98937 22 2.00037 20.011 2.00037 17.565V6.436C2.00037 3.99 3.98937 2 6.43337 2H11.3084ZM19.3885 8.554L22.3165 11.469C22.3426 11.4949 22.366 11.5219 22.3874 11.5504L22.3165 11.469C22.3519 11.5039 22.3834 11.5421 22.4107 11.5828C22.4228 11.6012 22.4344 11.6203 22.4451 11.6399C22.4539 11.6552 22.4619 11.6712 22.4693 11.6875C22.4757 11.7018 22.4817 11.7162 22.4873 11.7308C22.4949 11.7498 22.5015 11.7693 22.5073 11.7891C22.5116 11.8047 22.5156 11.8203 22.5192 11.836C22.5236 11.8551 22.5271 11.8743 22.5299 11.8937C22.5315 11.9063 22.533 11.9195 22.5342 11.9328C22.5365 11.9556 22.5375 11.9777 22.5375 12L22.5324 12.062L22.5303 12.1017C22.5301 12.1034 22.5299 12.1051 22.5296 12.1068L22.5375 12C22.5375 12.0555 22.5313 12.1105 22.5194 12.1639C22.5156 12.1797 22.5116 12.1953 22.5071 12.2107C22.5015 12.2307 22.4949 12.2502 22.4875 12.2695C22.4817 12.2838 22.4757 12.2982 22.4692 12.3123C22.4619 12.3288 22.4539 12.3448 22.4453 12.3605C22.4344 12.3797 22.4228 12.3988 22.4104 12.4172C22.4034 12.4282 22.3957 12.439 22.3877 12.4497C22.3638 12.481 22.3379 12.5104 22.3098 12.5377L19.3885 15.447C19.2425 15.593 19.0505 15.666 18.8595 15.666C18.6675 15.666 18.4745 15.593 18.3285 15.445C18.0365 15.151 18.0375 14.677 18.3305 14.385L19.9704 12.75H9.74617C9.33217 12.75 8.99617 12.414 8.99617 12C8.99617 11.586 9.33217 11.25 9.74617 11.25H19.9724L18.3305 9.616C18.0375 9.324 18.0355 8.85 18.3285 8.556C18.6205 8.262 19.0945 8.262 19.3885 8.554Z" fill="#2C2C37"/>
</svg>
