<svg width="24" height="24" viewBox="0 0 24 24" fill="none" xmlns="http://www.w3.org/2000/svg">
<path fill-rule="evenodd" clip-rule="evenodd" d="M11.4997 0C12.9021 0 20.2617 2.40637 21.2345 3.33425C22.0465 4.10768 22.0341 4.73256 21.9772 7.73079C21.9549 8.93103 21.924 10.5663 21.924 12.8265C21.924 20.9405 12.1829 23.8432 11.7683 23.9623C11.6804 23.9882 11.59 24 11.4997 24C11.4093 24 11.319 23.9882 11.2311 23.9623C10.8165 23.8432 1.07541 20.9405 1.07541 12.8265C1.07541 10.5628 1.04446 8.92749 1.02218 7.72725C1.01202 7.19249 1.00327 6.73329 1.00038 6.33532L1 5.88622C1.0105 4.41084 1.15555 3.91432 1.76359 3.33425C2.7377 2.40637 10.0973 0 11.4997 0ZM11.4997 1.76852C10.4501 1.76852 3.82691 3.98978 3.06322 4.59697C2.91674 4.73728 2.86233 4.94613 2.85536 5.7749L2.8548 6.09405C2.85627 6.49851 2.8649 7.01908 2.87756 7.69424C2.90108 8.90391 2.93202 10.5486 2.93202 12.8265C2.93202 18.9585 10.0144 21.6809 11.4985 22.182C12.9813 21.6785 20.0674 18.9409 20.0674 12.8265C20.0674 10.551 20.0983 8.90745 20.1206 7.69778C20.1336 7.02198 20.1424 6.50095 20.1438 6.09589L20.1431 5.7762C20.1353 4.94575 20.0775 4.73397 19.9213 4.58518C19.1712 3.98978 12.5493 1.76852 11.4997 1.76852ZM9.82985 8.88646L11.4998 10.4779L13.1695 8.88646C13.5322 8.54101 14.1189 8.54101 14.4815 8.88646C14.8442 9.23191 14.8442 9.79076 14.4815 10.1362L12.8118 11.7276L14.4813 13.3172C14.844 13.6626 14.844 14.2215 14.4813 14.5669C14.3006 14.7403 14.0629 14.8263 13.8253 14.8263C13.5876 14.8263 13.35 14.7403 13.1693 14.5669L11.4998 12.9774L9.8301 14.5669C9.64938 14.7403 9.41174 14.8263 9.17409 14.8263C8.93644 14.8263 8.6988 14.7403 8.51809 14.5669C8.15543 14.2215 8.15543 13.6626 8.51809 13.3172L10.1878 11.7276L8.51784 10.1362C8.15518 9.79076 8.15518 9.23191 8.51784 8.88646C8.8805 8.54101 9.46719 8.54101 9.82985 8.88646Z" fill="#2C2C37"/>
</svg>
